<svg width="233" height="226" viewBox="0 0 233 226" fill="none" xmlns="http://www.w3.org/2000/svg">
<g clip-path="url(#clip0_2_554)">
<g filter="url(#filter0_d_2_554)">
<rect x="0.32666" y="0.599365" width="232.404" height="225.253" fill="#1D2067"/>
</g>
<path d="M33.1636 41.5296C32.4009 41.5296 31.6905 41.4009 31.0327 41.1434C30.3843 40.886 29.8218 40.5285 29.3451 40.0708C28.8683 39.6036 28.4965 39.0601 28.2295 38.4404C27.9625 37.8206 27.8291 37.1437 27.8291 36.4095C27.8291 35.6754 27.9625 34.9984 28.2295 34.3787C28.4965 33.7589 28.8683 33.2202 29.3451 32.7626C29.8218 32.2954 30.3843 31.9331 31.0327 31.6757C31.681 31.4182 32.3913 31.2895 33.1636 31.2895C33.9264 31.2895 34.6272 31.4182 35.266 31.6757C35.9143 31.9236 36.4769 32.2811 36.9536 32.7483C37.4399 33.2059 37.8117 33.7446 38.0691 34.3644C38.3361 34.9841 38.4696 35.6658 38.4696 36.4095C38.4696 37.1532 38.3361 37.835 38.0691 38.4547C37.8117 39.0744 37.4399 39.6179 36.9536 40.0851C36.4769 40.5428 35.9143 40.9003 35.266 41.1577C34.6272 41.4056 33.9264 41.5296 33.1636 41.5296ZM33.1636 40.2567C33.7166 40.2567 34.2267 40.1614 34.6939 39.9707C35.1706 39.78 35.5806 39.513 35.9239 39.1698C36.2766 38.817 36.5484 38.407 36.7391 37.9398C36.9393 37.4726 37.0394 36.9625 37.0394 36.4095C37.0394 35.8565 36.9393 35.3464 36.7391 34.8793C36.5484 34.4121 36.2766 34.0068 35.9239 33.6636C35.5806 33.3108 35.1706 33.0391 34.6939 32.8484C34.2267 32.6577 33.7166 32.5624 33.1636 32.5624C32.6011 32.5624 32.0815 32.6577 31.6047 32.8484C31.1375 33.0391 30.7276 33.3108 30.3748 33.6636C30.022 34.0068 29.7455 34.4121 29.5453 34.8793C29.3546 35.3464 29.2592 35.8565 29.2592 36.4095C29.2592 36.9625 29.3546 37.4726 29.5453 37.9398C29.7455 38.407 30.022 38.817 30.3748 39.1698C30.7276 39.513 31.1375 39.78 31.6047 39.9707C32.0815 40.1614 32.6011 40.2567 33.1636 40.2567ZM42.4432 41.4152L39.1252 33.8352H40.5554L43.5016 40.7001H42.8151L45.8185 33.8352H47.1628L43.8448 41.4152H42.4432ZM51.6099 41.501C50.7995 41.501 50.0844 41.3341 49.4646 41.0004C48.8544 40.6667 48.3777 40.209 48.0345 39.6274C47.7007 39.0458 47.5339 38.3784 47.5339 37.6252C47.5339 36.872 47.696 36.2045 48.0201 35.6229C48.3539 35.0413 48.8067 34.5884 49.3788 34.2643C49.9604 33.9306 50.6135 33.7637 51.3382 33.7637C52.0723 33.7637 52.7207 33.9258 53.2832 34.25C53.8457 34.5741 54.2843 35.0318 54.599 35.6229C54.9231 36.2045 55.0852 36.8863 55.0852 37.6681C55.0852 37.7253 55.0805 37.792 55.0709 37.8683C55.0709 37.9446 55.0662 38.0161 55.0566 38.0828H48.6065V37.096H54.3415L53.7838 37.4393C53.7933 36.953 53.6932 36.5192 53.4834 36.1378C53.2737 35.7564 52.9829 35.4609 52.611 35.2511C52.2487 35.0318 51.8244 34.9222 51.3382 34.9222C50.8614 34.9222 50.4371 35.0318 50.0653 35.2511C49.6935 35.4609 49.4027 35.7612 49.1929 36.1521C48.9831 36.5335 48.8783 36.9721 48.8783 37.4679V37.6967C48.8783 38.202 48.9927 38.6549 49.2215 39.0554C49.4599 39.4463 49.7888 39.7514 50.2083 39.9707C50.6278 40.19 51.1093 40.2996 51.6528 40.2996C52.1009 40.2996 52.5061 40.2233 52.8685 40.0708C53.2403 39.9182 53.5645 39.6894 53.841 39.3843L54.599 40.271C54.2557 40.6715 53.8267 40.9766 53.3118 41.1863C52.8065 41.3961 52.2392 41.501 51.6099 41.501ZM56.9917 41.4152V33.8352H58.3075V35.8947L58.1788 35.3798C58.3885 34.8554 58.7413 34.455 59.2371 34.1785C59.7329 33.902 60.3431 33.7637 61.0677 33.7637V35.0938C61.0105 35.0842 60.9533 35.0795 60.8961 35.0795C60.8484 35.0795 60.8008 35.0795 60.7531 35.0795C60.0189 35.0795 59.4373 35.2988 59.0083 35.7374C58.5792 36.1759 58.3647 36.81 58.3647 37.6395V41.4152H56.9917ZM65.0551 41.4152L61.7371 33.8352H63.1673L66.1135 40.7001H65.427L68.4303 33.8352H69.7747L66.4567 41.4152H65.0551ZM71.0561 41.4152V33.8352H72.429V41.4152H71.0561ZM71.7425 32.3764C71.4756 32.3764 71.2515 32.2906 71.0704 32.119C70.8987 31.9474 70.8129 31.7376 70.8129 31.4897C70.8129 31.2323 70.8987 31.0178 71.0704 30.8462C71.2515 30.6745 71.4756 30.5887 71.7425 30.5887C72.0095 30.5887 72.2288 30.6745 72.4004 30.8462C72.5816 31.0082 72.6722 31.2132 72.6722 31.4611C72.6722 31.7186 72.5864 31.9379 72.4147 32.119C72.2431 32.2906 72.019 32.3764 71.7425 32.3764ZM78.4257 41.501C77.6153 41.501 76.9002 41.3341 76.2805 41.0004C75.6702 40.6667 75.1935 40.209 74.8503 39.6274C74.5166 39.0458 74.3497 38.3784 74.3497 37.6252C74.3497 36.872 74.5118 36.2045 74.836 35.6229C75.1697 35.0413 75.6226 34.5884 76.1946 34.2643C76.7762 33.9306 77.4294 33.7637 78.154 33.7637C78.8881 33.7637 79.5365 33.9258 80.099 34.25C80.6616 34.5741 81.1002 35.0318 81.4148 35.6229C81.739 36.2045 81.9011 36.8863 81.9011 37.6681C81.9011 37.7253 81.8963 37.792 81.8867 37.8683C81.8867 37.9446 81.882 38.0161 81.8724 38.0828H75.4223V37.096H81.1574L80.5996 37.4393C80.6091 36.953 80.509 36.5192 80.2993 36.1378C80.0895 35.7564 79.7987 35.4609 79.4268 35.2511C79.0645 35.0318 78.6402 34.9222 78.154 34.9222C77.6773 34.9222 77.253 35.0318 76.8811 35.2511C76.5093 35.4609 76.2185 35.7612 76.0087 36.1521C75.799 36.5335 75.6941 36.9721 75.6941 37.4679V37.6967C75.6941 38.202 75.8085 38.6549 76.0373 39.0554C76.2757 39.4463 76.6046 39.7514 77.0241 39.9707C77.4437 40.19 77.9252 40.2996 78.4686 40.2996C78.9167 40.2996 79.322 40.2233 79.6843 40.0708C80.0561 39.9182 80.3803 39.6894 80.6568 39.3843L81.4148 40.271C81.0715 40.6715 80.6425 40.9766 80.1276 41.1863C79.6223 41.3961 79.055 41.501 78.4257 41.501ZM30.0458 58.4152L27.2284 50.8352H28.5299L31.0327 57.7001H30.4177L33.0206 50.8352H34.1791L36.7248 57.7001H36.1241L38.6841 50.8352H39.9141L37.0823 58.4152H35.7665L33.3782 52.151H33.7786L31.3616 58.4152H30.0458Z" fill="#8476AA"/>
<path d="M151.756 41.4152V35.0342H152.498V40.7517H155.33V41.4152H151.756ZM158.106 36.553C158.677 36.553 159.1 36.6811 159.376 36.9371C159.653 37.1932 159.791 37.602 159.791 38.1636V41.4152H159.263L159.123 40.7081H159.088C158.954 40.8827 158.815 41.0296 158.669 41.1489C158.524 41.2653 158.355 41.3541 158.163 41.4152C157.974 41.4734 157.741 41.5025 157.465 41.5025C157.174 41.5025 156.915 41.4515 156.688 41.3497C156.464 41.2479 156.286 41.0936 156.155 40.8871C156.027 40.6805 155.963 40.4186 155.963 40.1014C155.963 39.6242 156.152 39.2576 156.531 39.0016C156.909 38.7455 157.485 38.6058 158.259 38.5826L159.084 38.5476V38.2552C159.084 37.842 158.995 37.5525 158.818 37.3867C158.64 37.2208 158.39 37.1379 158.067 37.1379C157.817 37.1379 157.578 37.1743 157.351 37.247C157.124 37.3198 156.909 37.4056 156.705 37.5045L156.483 36.9546C156.698 36.844 156.945 36.7495 157.225 36.6709C157.504 36.5923 157.798 36.553 158.106 36.553ZM159.075 39.0583L158.346 39.0889C157.75 39.1121 157.329 39.2096 157.085 39.3813C156.841 39.553 156.718 39.7959 156.718 40.1102C156.718 40.3837 156.801 40.5859 156.967 40.7168C157.133 40.8478 157.353 40.9132 157.626 40.9132C158.051 40.9132 158.399 40.7954 158.669 40.5597C158.94 40.324 159.075 39.9705 159.075 39.4991V39.0583ZM164.378 40.1058C164.378 40.4113 164.301 40.6688 164.147 40.8783C163.996 41.0849 163.777 41.2406 163.492 41.3453C163.21 41.4501 162.872 41.5025 162.48 41.5025C162.145 41.5025 161.855 41.4763 161.611 41.4239C161.367 41.3715 161.153 41.2973 160.969 41.2013V40.5335C161.164 40.6295 161.397 40.7168 161.668 40.7954C161.938 40.874 162.215 40.9132 162.497 40.9132C162.91 40.9132 163.21 40.8463 163.396 40.7125C163.582 40.5786 163.675 40.3968 163.675 40.1669C163.675 40.036 163.638 39.921 163.562 39.8221C163.489 39.7203 163.366 39.6228 163.191 39.5297C163.016 39.4337 162.775 39.3289 162.466 39.2154C162.161 39.099 161.896 38.9841 161.672 38.8706C161.451 38.7542 161.279 38.6131 161.157 38.4473C161.038 38.2814 160.978 38.0661 160.978 37.8013C160.978 37.3969 161.141 37.087 161.467 36.8717C161.796 36.6534 162.226 36.5443 162.759 36.5443C163.047 36.5443 163.316 36.5734 163.566 36.6316C163.819 36.6869 164.055 36.7625 164.273 36.8586L164.029 37.4391C163.831 37.3547 163.62 37.2834 163.396 37.2252C163.172 37.167 162.944 37.1379 162.711 37.1379C162.376 37.1379 162.119 37.1932 161.938 37.3038C161.761 37.4143 161.672 37.5656 161.672 37.7577C161.672 37.9061 161.713 38.0283 161.794 38.1243C161.879 38.2203 162.013 38.3105 162.196 38.3949C162.379 38.4793 162.621 38.5782 162.92 38.6917C163.22 38.8022 163.479 38.9172 163.697 39.0365C163.915 39.1529 164.083 39.2954 164.199 39.4642C164.318 39.6301 164.378 39.8439 164.378 40.1058ZM167.089 40.9089C167.208 40.9089 167.33 40.8987 167.455 40.8783C167.58 40.858 167.682 40.8332 167.761 40.8041V41.3672C167.676 41.405 167.558 41.437 167.407 41.4632C167.259 41.4894 167.113 41.5025 166.971 41.5025C166.718 41.5025 166.488 41.4588 166.281 41.3715C166.074 41.2813 165.909 41.13 165.784 40.9176C165.661 40.7052 165.6 40.4113 165.6 40.036V37.199H164.919V36.8455L165.605 36.5618L165.893 35.523H166.329V36.6316H167.73V37.199H166.329V40.0141C166.329 40.3138 166.397 40.5379 166.534 40.6863C166.674 40.8347 166.859 40.9089 167.089 40.9089ZM172.745 37.5132C173.179 37.5132 173.555 37.5874 173.875 37.7358C174.195 37.8813 174.443 38.0937 174.617 38.3731C174.795 38.6524 174.884 38.9914 174.884 39.39C174.884 39.8265 174.789 40.2033 174.6 40.5204C174.411 40.8347 174.139 41.0776 173.784 41.2493C173.429 41.4181 173.004 41.5025 172.509 41.5025C172.178 41.5025 171.869 41.4734 171.584 41.4152C171.299 41.357 171.059 41.2697 170.864 41.1533V40.4637C171.076 40.5917 171.334 40.6936 171.636 40.7692C171.939 40.8449 172.233 40.8827 172.518 40.8827C172.841 40.8827 173.123 40.8318 173.365 40.7299C173.609 40.6252 173.798 40.4681 173.932 40.2586C174.069 40.0461 174.137 39.7799 174.137 39.4598C174.137 39.035 174.006 38.7077 173.744 38.4778C173.486 38.245 173.075 38.1287 172.514 38.1287C172.333 38.1287 172.135 38.1432 171.92 38.1723C171.705 38.2014 171.527 38.2334 171.388 38.2683L171.021 38.0283L171.265 35.0342H174.438V35.6976H171.885L171.724 37.6224C171.834 37.5991 171.977 37.5758 172.151 37.5525C172.326 37.5263 172.524 37.5132 172.745 37.5132ZM183.683 36.5443C184.209 36.5443 184.606 36.6825 184.874 36.959C185.142 37.2325 185.276 37.6733 185.276 38.2814V41.4152H184.56V38.3163C184.56 37.9293 184.475 37.6398 184.307 37.4478C184.141 37.2528 183.894 37.1554 183.565 37.1554C183.102 37.1554 182.766 37.2892 182.557 37.5569C182.347 37.8246 182.242 38.2189 182.242 38.7397V41.4152H181.522V38.3163C181.522 38.0574 181.484 37.842 181.409 37.6704C181.336 37.4987 181.225 37.3707 181.077 37.2863C180.931 37.199 180.747 37.1554 180.523 37.1554C180.205 37.1554 179.951 37.2208 179.759 37.3518C179.567 37.4827 179.427 37.6776 179.34 37.9366C179.255 38.1927 179.213 38.5084 179.213 38.8837V41.4152H178.489V36.6316H179.074L179.183 37.3081H179.222C179.318 37.1423 179.439 37.0026 179.584 36.8891C179.73 36.7756 179.893 36.6898 180.073 36.6316C180.253 36.5734 180.446 36.5443 180.649 36.5443C181.013 36.5443 181.317 36.6127 181.561 36.7495C181.809 36.8833 181.988 37.0884 182.098 37.3649H182.138C182.295 37.0884 182.51 36.8833 182.783 36.7495C183.057 36.6127 183.357 36.5443 183.683 36.5443ZM190.888 39.0147C190.888 39.4075 190.838 39.7581 190.736 40.0665C190.634 40.3749 190.487 40.6354 190.295 40.8478C190.103 41.0602 189.87 41.2231 189.597 41.3366C189.326 41.4472 189.019 41.5025 188.676 41.5025C188.356 41.5025 188.062 41.4472 187.794 41.3366C187.529 41.2231 187.299 41.0602 187.104 40.8478C186.912 40.6354 186.762 40.3749 186.655 40.0665C186.55 39.7581 186.498 39.4075 186.498 39.0147C186.498 38.4909 186.586 38.0457 186.764 37.6791C186.941 37.3096 187.195 37.0288 187.523 36.8367C187.855 36.6418 188.249 36.5443 188.706 36.5443C189.143 36.5443 189.524 36.6418 189.85 36.8367C190.178 37.0317 190.433 37.3139 190.613 37.6835C190.797 38.0501 190.888 38.4938 190.888 39.0147ZM187.248 39.0147C187.248 39.3987 187.299 39.7319 187.401 40.0141C187.503 40.2964 187.66 40.5146 187.873 40.6688C188.085 40.823 188.358 40.9001 188.693 40.9001C189.025 40.9001 189.297 40.823 189.509 40.6688C189.725 40.5146 189.883 40.2964 189.985 40.0141C190.087 39.7319 190.138 39.3987 190.138 39.0147C190.138 38.6335 190.087 38.3047 189.985 38.0283C189.883 37.7489 189.726 37.5336 189.514 37.3823C189.301 37.231 189.026 37.1554 188.689 37.1554C188.191 37.1554 187.826 37.3198 187.593 37.6486C187.363 37.9773 187.248 38.4327 187.248 39.0147ZM194.406 36.5443C194.974 36.5443 195.403 36.684 195.694 36.9633C195.985 37.2397 196.13 37.6849 196.13 38.2989V41.4152H195.414V38.3469C195.414 37.9482 195.323 37.65 195.14 37.4521C194.959 37.2543 194.681 37.1554 194.306 37.1554C193.776 37.1554 193.404 37.3052 193.189 37.6049C192.973 37.9046 192.866 38.3396 192.866 38.9099V41.4152H192.141V36.6316H192.726L192.835 37.3212H192.874C192.976 37.1524 193.106 37.0113 193.263 36.8978C193.42 36.7815 193.596 36.6942 193.791 36.636C193.986 36.5749 194.191 36.5443 194.406 36.5443ZM199.168 40.9089C199.287 40.9089 199.41 40.8987 199.535 40.8783C199.66 40.858 199.762 40.8332 199.84 40.8041V41.3672C199.756 41.405 199.638 41.437 199.487 41.4632C199.338 41.4894 199.193 41.5025 199.05 41.5025C198.797 41.5025 198.567 41.4588 198.361 41.3715C198.154 41.2813 197.988 41.13 197.863 40.9176C197.741 40.7052 197.68 40.4113 197.68 40.036V37.199H196.999V36.8455L197.684 36.5618L197.972 35.523H198.409V36.6316H199.81V37.199H198.409V40.0141C198.409 40.3138 198.477 40.5379 198.614 40.6863C198.753 40.8347 198.938 40.9089 199.168 40.9089ZM201.534 34.6239V36.6534C201.534 36.7698 201.531 36.8877 201.525 37.007C201.519 37.1233 201.509 37.231 201.494 37.3299H201.542C201.641 37.1612 201.766 37.0201 201.918 36.9066C202.072 36.7902 202.246 36.7029 202.441 36.6447C202.636 36.5836 202.843 36.553 203.061 36.553C203.445 36.553 203.765 36.6142 204.021 36.7364C204.28 36.8586 204.474 37.0477 204.602 37.3038C204.733 37.5598 204.798 37.8915 204.798 38.2989V41.4152H204.082V38.3469C204.082 37.9482 203.991 37.65 203.808 37.4521C203.627 37.2543 203.349 37.1554 202.974 37.1554C202.619 37.1554 202.335 37.2237 202.123 37.3605C201.913 37.4943 201.762 37.6922 201.669 37.9541C201.579 38.2159 201.534 38.536 201.534 38.9143V41.4152H200.809V34.6239H201.534Z" fill="#8476AA"/>
<g opacity="0.2" clip-path="url(#clip1_2_554)">
<path d="M121.713 193.735L119.548 188.078H119.513C119.554 188.526 119.574 189.059 119.574 189.676V193.735H118.889V187.354H120.006L122.027 192.617H122.062L124.1 187.354H125.209V193.735H124.467V189.623C124.467 189.152 124.487 188.64 124.528 188.087H124.493L122.311 193.735H121.713ZM129.796 193.735L129.652 193.054H129.617C129.378 193.353 129.14 193.557 128.901 193.665C128.665 193.77 128.37 193.822 128.015 193.822C127.541 193.822 127.168 193.7 126.898 193.455C126.63 193.211 126.496 192.863 126.496 192.412C126.496 191.446 127.269 190.94 128.814 190.893L129.626 190.867V190.57C129.626 190.195 129.544 189.919 129.381 189.741C129.221 189.561 128.964 189.47 128.609 189.47C128.21 189.47 127.759 189.593 127.256 189.837L127.033 189.283C127.269 189.155 127.526 189.054 127.806 188.982C128.088 188.909 128.37 188.873 128.652 188.873C129.223 188.873 129.645 188.999 129.918 189.252C130.195 189.505 130.333 189.911 130.333 190.47V193.735H129.796ZM128.159 193.224C128.61 193.224 128.964 193.1 129.22 192.853C129.479 192.606 129.608 192.259 129.608 191.814V191.382L128.884 191.413C128.308 191.433 127.891 191.523 127.635 191.683C127.382 191.84 127.256 192.086 127.256 192.421C127.256 192.683 127.334 192.882 127.491 193.019C127.651 193.156 127.874 193.224 128.159 193.224ZM134.012 188.864C134.224 188.864 134.415 188.881 134.584 188.916L134.483 189.588C134.286 189.545 134.111 189.523 133.96 189.523C133.573 189.523 133.241 189.68 132.965 189.994C132.691 190.308 132.554 190.7 132.554 191.168V193.735H131.83V188.951H132.428L132.511 189.837H132.546C132.723 189.526 132.937 189.286 133.187 189.117C133.437 188.948 133.712 188.864 134.012 188.864Z" fill="white"/>
<path d="M185.643 193.735L183.478 188.078H183.443C183.484 188.526 183.505 189.059 183.505 189.676V193.735H182.819V187.354H183.937L185.957 192.617H185.992L188.031 187.354H189.139V193.735H188.397V189.623C188.397 189.152 188.418 188.64 188.458 188.087H188.423L186.241 193.735H185.643ZM193.726 193.735L193.582 193.054H193.547C193.309 193.353 193.07 193.557 192.832 193.665C192.596 193.77 192.301 193.822 191.946 193.822C191.471 193.822 191.099 193.7 190.828 193.455C190.561 193.211 190.427 192.863 190.427 192.412C190.427 191.446 191.199 190.94 192.744 190.893L193.556 190.867V190.57C193.556 190.195 193.475 189.919 193.312 189.741C193.152 189.561 192.894 189.47 192.539 189.47C192.141 189.47 191.69 189.593 191.186 189.837L190.964 189.283C191.199 189.155 191.457 189.054 191.736 188.982C192.018 188.909 192.301 188.873 192.583 188.873C193.153 188.873 193.575 188.999 193.849 189.252C194.125 189.505 194.263 189.911 194.263 190.47V193.735H193.726ZM192.09 193.224C192.541 193.224 192.894 193.1 193.15 192.853C193.409 192.606 193.539 192.259 193.539 191.814V191.382L192.814 191.413C192.238 191.433 191.822 191.523 191.566 191.683C191.313 191.84 191.186 192.086 191.186 192.421C191.186 192.683 191.265 192.882 191.422 193.019C191.582 193.156 191.804 193.224 192.09 193.224ZM195.001 188.951H195.778L196.825 191.679C197.055 192.302 197.198 192.751 197.253 193.028H197.288C197.326 192.879 197.404 192.626 197.523 192.268C197.646 191.907 198.041 190.802 198.711 188.951H199.488L197.432 194.398C197.228 194.936 196.99 195.317 196.716 195.542C196.445 195.769 196.112 195.882 195.717 195.882C195.495 195.882 195.277 195.857 195.062 195.808V195.227C195.222 195.262 195.401 195.28 195.599 195.28C196.096 195.28 196.451 195 196.664 194.442L196.93 193.761L195.001 188.951Z" fill="white"/>
<path d="M156.035 193.735L155.24 191.705H152.683L151.897 193.735H151.146L153.669 187.327H154.293L156.803 193.735H156.035ZM155.009 191.037L154.267 189.06C154.171 188.81 154.072 188.503 153.97 188.139C153.906 188.419 153.815 188.726 153.695 189.06L152.945 191.037H155.009ZM159.797 193.822C159.486 193.822 159.2 193.765 158.941 193.652C158.685 193.535 158.47 193.358 158.296 193.119H158.243C158.278 193.399 158.296 193.663 158.296 193.914V195.882H157.571V188.951H158.16L158.261 189.606H158.296C158.482 189.344 158.699 189.155 158.946 189.038C159.193 188.922 159.477 188.864 159.797 188.864C160.431 188.864 160.92 189.081 161.263 189.514C161.61 189.948 161.783 190.556 161.783 191.338C161.783 192.124 161.607 192.735 161.255 193.172C160.906 193.605 160.42 193.822 159.797 193.822ZM159.692 189.479C159.203 189.479 158.85 189.614 158.632 189.885C158.413 190.156 158.301 190.586 158.296 191.177V191.338C158.296 192.011 158.408 192.492 158.632 192.783C158.856 193.071 159.215 193.215 159.71 193.215C160.123 193.215 160.446 193.048 160.679 192.713C160.914 192.379 161.032 191.918 161.032 191.33C161.032 190.733 160.914 190.276 160.679 189.959C160.446 189.639 160.117 189.479 159.692 189.479ZM165.235 188.864C165.448 188.864 165.638 188.881 165.807 188.916L165.707 189.588C165.509 189.545 165.334 189.523 165.183 189.523C164.796 189.523 164.464 189.68 164.188 189.994C163.914 190.308 163.777 190.7 163.777 191.168V193.735H163.053V188.951H163.651L163.734 189.837H163.769C163.946 189.526 164.16 189.286 164.41 189.117C164.66 188.948 164.935 188.864 165.235 188.864Z" fill="white"/>
<path d="M88.2419 193.735H87.4999V187.354H91.057V188.013H88.2419V190.348H90.8868V191.007H88.2419V193.735ZM94.0293 193.822C93.3222 193.822 92.7635 193.607 92.3533 193.176C91.9459 192.745 91.7422 192.147 91.7422 191.382C91.7422 190.611 91.9314 189.999 92.3096 189.545C92.6908 189.091 93.2014 188.864 93.8416 188.864C94.441 188.864 94.9153 189.062 95.2644 189.457C95.6136 189.85 95.7882 190.37 95.7882 191.016V191.474H92.4929C92.5075 192.035 92.6486 192.462 92.9163 192.753C93.1869 193.044 93.5666 193.189 94.0554 193.189C94.5705 193.189 95.0797 193.081 95.583 192.866V193.512C95.327 193.623 95.084 193.701 94.8542 193.748C94.6272 193.797 94.3522 193.822 94.0293 193.822ZM93.8329 189.47C93.4488 189.47 93.1418 189.596 92.9119 189.846C92.685 190.096 92.5511 190.442 92.5104 190.885H95.0113C95.0113 190.428 94.9094 190.079 94.7058 189.837C94.5021 189.593 94.2111 189.47 93.8329 189.47ZM99.2536 188.873C99.8821 188.873 100.37 189.088 100.716 189.518C101.065 189.946 101.24 190.553 101.24 191.338C101.24 192.124 101.063 192.735 100.711 193.172C100.362 193.605 99.8763 193.822 99.2536 193.822C98.9423 193.822 98.6571 193.765 98.3982 193.652C98.1421 193.535 97.9268 193.358 97.7522 193.119H97.6998L97.5471 193.735H97.0277V186.943H97.7522V188.593C97.7522 188.963 97.7406 189.294 97.7173 189.588H97.7522C98.0897 189.111 98.5902 188.873 99.2536 188.873ZM99.1489 189.479C98.6542 189.479 98.2978 189.622 98.0796 189.907C97.8613 190.189 97.7522 190.666 97.7522 191.338C97.7522 192.011 97.8642 192.492 98.0883 192.783C98.3123 193.071 98.6717 193.215 99.1663 193.215C99.6115 193.215 99.9432 193.054 100.161 192.731C100.38 192.405 100.489 191.938 100.489 191.33C100.489 190.707 100.38 190.243 100.161 189.937C99.9432 189.632 99.6057 189.479 99.1489 189.479Z" fill="white"/>
<path d="M55.5217 195.415C55.2482 195.415 55.0329 195.376 54.8757 195.297V194.664C55.0823 194.722 55.2977 194.752 55.5217 194.752C55.8098 194.752 56.028 194.664 56.1764 194.49C56.3277 194.315 56.4033 194.063 56.4033 193.735V187.354H57.1453V193.674C57.1453 194.226 57.0056 194.654 56.7263 194.957C56.447 195.262 56.0454 195.415 55.5217 195.415ZM61.6757 193.735L61.5317 193.054H61.4968C61.2582 193.353 61.0196 193.557 60.781 193.665C60.5453 193.77 60.25 193.822 59.895 193.822C59.4207 193.822 59.0483 193.7 58.7777 193.455C58.51 193.211 58.3761 192.863 58.3761 192.412C58.3761 191.446 59.1486 190.94 60.6937 190.893L61.5055 190.867V190.57C61.5055 190.195 61.424 189.919 61.2611 189.741C61.1011 189.561 60.8435 189.47 60.4886 189.47C60.0899 189.47 59.6389 189.593 59.1355 189.837L58.913 189.283C59.1486 189.155 59.4062 189.054 59.6855 188.982C59.9677 188.909 60.25 188.873 60.5322 188.873C61.1025 188.873 61.5244 188.999 61.7979 189.252C62.0743 189.505 62.2126 189.911 62.2126 190.47V193.735H61.6757ZM60.039 193.224C60.49 193.224 60.8435 193.1 61.0996 192.853C61.3586 192.606 61.488 192.259 61.488 191.814V191.382L60.7635 191.413C60.1874 191.433 59.7713 191.523 59.5153 191.683C59.2621 191.84 59.1355 192.086 59.1355 192.421C59.1355 192.683 59.2141 192.882 59.3712 193.019C59.5313 193.156 59.7539 193.224 60.039 193.224ZM66.983 193.735V190.64C66.983 190.25 66.8943 189.959 66.7168 189.767C66.5393 189.575 66.2614 189.479 65.8832 189.479C65.3827 189.479 65.0161 189.614 64.7833 189.885C64.5505 190.156 64.4341 190.602 64.4341 191.225V193.735H63.7096V188.951H64.2988L64.4167 189.606H64.4516C64.6 189.37 64.808 189.188 65.0757 189.06C65.3434 188.929 65.6416 188.864 65.9704 188.864C66.5466 188.864 66.9801 189.003 67.2711 189.283C67.562 189.559 67.7075 190.003 67.7075 190.614V193.735H66.983Z" fill="white"/>
</g>
<g opacity="0.1">
<path d="M46.8074 114.567H207.702" stroke="#EDE9F2" stroke-width="0.44693"/>
<path d="M46.8074 69.8736H207.702" stroke="#EDE9F2" stroke-width="0.44693"/>
<path d="M46.8074 92.22H207.702" stroke="#EDE9F2" stroke-width="0.44693"/>
<path d="M46.8074 136.913H207.702" stroke="#EDE9F2" stroke-width="0.44693"/>
<path d="M46.8074 159.26H207.702" stroke="#EDE9F2" stroke-width="0.44693"/>
<path d="M46.8074 181.606H207.702" stroke="#EDE9F2" stroke-width="0.44693"/>
</g>
<g opacity="0.2" clip-path="url(#clip2_2_554)">
<path d="M34.2812 85.3618C34.8631 85.3618 35.3243 85.4971 35.6647 85.7677C36.0052 86.0383 36.1754 86.4122 36.1754 86.8894C36.1754 87.2037 36.0779 87.4903 35.883 87.7492C35.688 88.0082 35.3767 88.2439 34.949 88.4563C35.4669 88.7036 35.835 88.9641 36.0532 89.2376C36.2714 89.5082 36.3805 89.8224 36.3805 90.1803C36.3805 90.7099 36.1958 91.1332 35.8262 91.4504C35.4567 91.7646 34.9504 91.9218 34.3074 91.9218C33.6265 91.9218 33.1027 91.7734 32.7361 91.4766C32.3695 91.1769 32.1862 90.7535 32.1862 90.2065C32.1862 89.4762 32.6314 88.9073 33.5217 88.5C33.1202 88.273 32.8321 88.0286 32.6576 87.7667C32.483 87.5019 32.3957 87.2066 32.3957 86.8807C32.3957 86.4181 32.5659 86.05 32.9063 85.7765C33.2497 85.5 33.708 85.3618 34.2812 85.3618ZM32.902 90.224C32.902 90.5731 33.0227 90.8452 33.2642 91.0401C33.5087 91.2351 33.8505 91.3325 34.2899 91.3325C34.7235 91.3325 35.061 91.2307 35.3025 91.027C35.544 90.8234 35.6647 90.544 35.6647 90.189C35.6647 89.9068 35.5513 89.6566 35.3243 89.4383C35.0973 89.2172 34.7016 89.0033 34.1371 88.7967C33.7036 88.983 33.3894 89.1896 33.1944 89.4165C32.9995 89.6406 32.902 89.9097 32.902 90.224ZM34.2724 85.9511C33.9087 85.9511 33.6236 86.0383 33.417 86.2129C33.2104 86.3875 33.1071 86.6203 33.1071 86.9113C33.1071 87.1789 33.1929 87.4088 33.3646 87.6009C33.5363 87.7929 33.8535 87.9849 34.3161 88.177C34.7322 88.0024 35.0261 87.8147 35.1977 87.6139C35.3723 87.4132 35.4596 87.1789 35.4596 86.9113C35.4596 86.6174 35.3534 86.3846 35.141 86.2129C34.9315 86.0383 34.642 85.9511 34.2724 85.9511ZM42.3338 91.8345H41.4609L39.1346 88.74L38.4668 89.3336V91.8345H37.7248V85.4535H38.4668V88.6178L41.3605 85.4535H42.2378L39.6714 88.225L42.3338 91.8345Z" fill="white"/>
<path d="M36.3631 158.874H32.1687V158.25L33.8491 156.561C34.3612 156.043 34.6987 155.673 34.8617 155.452C35.0246 155.231 35.1468 155.016 35.2283 154.806C35.3098 154.597 35.3505 154.371 35.3505 154.13C35.3505 153.789 35.2472 153.52 35.0406 153.322C34.834 153.122 34.5474 153.021 34.1808 153.021C33.916 153.021 33.6643 153.065 33.4257 153.152C33.19 153.24 32.9267 153.398 32.6357 153.628L32.2517 153.135C32.8394 152.646 33.4796 152.402 34.1721 152.402C34.7715 152.402 35.2414 152.556 35.5818 152.864C35.9222 153.17 36.0925 153.581 36.0925 154.099C36.0925 154.504 35.979 154.904 35.752 155.3C35.5251 155.695 35.1003 156.196 34.4776 156.801L33.0809 158.167V158.202H36.3631V158.874ZM42.3338 158.874H41.4609L39.1346 155.78L38.4668 156.373V158.874H37.7248V152.493H38.4668V155.657L41.3605 152.493H42.2378L39.6714 155.265L42.3338 158.874Z" fill="white"/>
<path d="M41.8885 178.021C41.8885 179.124 41.7139 179.948 41.3647 180.492C41.0185 181.036 40.4874 181.308 39.7717 181.308C39.085 181.308 38.5627 181.03 38.2048 180.474C37.8469 179.916 37.6679 179.098 37.6679 178.021C37.6679 176.91 37.8411 176.085 38.1873 175.547C38.5336 175.008 39.0617 174.739 39.7717 174.739C40.4642 174.739 40.9894 175.02 41.3473 175.582C41.7081 176.143 41.8885 176.956 41.8885 178.021ZM38.4012 178.021C38.4012 178.95 38.5103 179.626 38.7285 180.051C38.9468 180.473 39.2945 180.684 39.7717 180.684C40.2547 180.684 40.6038 180.47 40.8192 180.042C41.0374 179.612 41.1465 178.938 41.1465 178.021C41.1465 177.105 41.0374 176.434 40.8192 176.009C40.6038 175.582 40.2547 175.368 39.7717 175.368C39.2945 175.368 38.9468 175.579 38.7285 176.001C38.5103 176.42 38.4012 177.093 38.4012 178.021Z" fill="white"/>
<path d="M32.2429 111.453C32.2429 110.199 32.4859 109.262 32.9718 108.642C33.4606 108.02 34.1822 107.708 35.1366 107.708C35.4654 107.708 35.7244 107.736 35.9135 107.791V108.415C35.6895 108.343 35.4334 108.306 35.1454 108.306C34.4616 108.306 33.9393 108.52 33.5785 108.948C33.2177 109.373 33.0198 110.042 32.9849 110.956H33.0373C33.3573 110.455 33.8636 110.205 34.5561 110.205C35.1294 110.205 35.5804 110.378 35.9092 110.724C36.2409 111.071 36.4067 111.54 36.4067 112.134C36.4067 112.797 36.2249 113.32 35.8611 113.701C35.5003 114.079 35.0115 114.268 34.3947 114.268C33.7342 114.268 33.2104 114.021 32.8234 113.526C32.4364 113.029 32.2429 112.338 32.2429 111.453ZM34.3859 113.653C34.7991 113.653 35.1192 113.523 35.3461 113.264C35.576 113.003 35.6909 112.626 35.6909 112.134C35.6909 111.712 35.5847 111.38 35.3723 111.139C35.1599 110.897 34.8427 110.777 34.4208 110.777C34.159 110.777 33.9189 110.831 33.7007 110.938C33.4825 111.046 33.3079 111.194 33.1769 111.383C33.0489 111.572 32.9849 111.769 32.9849 111.973C32.9849 112.272 33.0431 112.552 33.1595 112.811C33.2759 113.07 33.4403 113.275 33.6527 113.426C33.868 113.577 34.1124 113.653 34.3859 113.653ZM42.3338 114.181H41.4609L39.1346 111.087L38.4668 111.68V114.181H37.7248V107.8H38.4668V110.964L41.3605 107.8H42.2378L39.6714 110.572L42.3338 114.181Z" fill="white"/>
<path d="M29.7376 69.488H29.0305V64.9402C29.0305 64.5619 29.0421 64.204 29.0654 63.8665C29.0043 63.9276 28.9359 63.9916 28.8603 64.0585C28.7846 64.1255 28.4384 64.4092 27.8215 64.9096L27.4374 64.4121L29.1265 63.1071H29.7376V69.488ZM36.3979 66.2888C36.3979 67.3916 36.2233 68.215 35.8741 68.7592C35.5279 69.3033 34.9968 69.5753 34.2811 69.5753C33.5944 69.5753 33.0721 69.2975 32.7142 68.7417C32.3563 68.183 32.1773 67.3654 32.1773 66.2888C32.1773 65.1773 32.3505 64.3524 32.6967 63.8141C33.043 63.2758 33.5711 63.0067 34.2811 63.0067C34.9736 63.0067 35.4988 63.2875 35.8567 63.849C36.2175 64.4106 36.3979 65.2239 36.3979 66.2888ZM32.9106 66.2888C32.9106 67.217 33.0197 67.8935 33.2379 68.3183C33.4562 68.7402 33.8039 68.9512 34.2811 68.9512C34.7641 68.9512 35.1132 68.7373 35.3286 68.3096C35.5468 67.879 35.6559 67.2054 35.6559 66.2888C35.6559 65.3723 35.5468 64.7016 35.3286 64.2768C35.1132 63.849 34.7641 63.6352 34.2811 63.6352C33.8039 63.6352 33.4562 63.8461 33.2379 64.268C33.0197 64.687 32.9106 65.3606 32.9106 66.2888ZM42.3337 69.488H41.4608L39.1344 66.3936L38.4667 66.9871V69.488H37.7247V63.1071H38.4667V66.2714L41.3604 63.1071H42.2376L39.6713 65.8786L42.3337 69.488Z" fill="white"/>
<path d="M36.6642 135.061H35.7171V136.528H35.0232V135.061H31.92V134.428L34.949 130.112H35.7171V134.402H36.6642V135.061ZM35.0232 134.402V132.281C35.0232 131.865 35.0377 131.395 35.0668 130.871H35.0319C34.8922 131.15 34.7613 131.382 34.6391 131.565L32.6445 134.402H35.0232ZM42.3338 136.528H41.4609L39.1346 133.433L38.4668 134.027V136.528H37.7248V130.147H38.4668V133.311L41.3605 130.147H42.2378L39.6714 132.918L42.3338 136.528Z" fill="white"/>
</g>
<path d="M123.679 129.315C123.679 127.834 124.88 126.634 126.361 126.634V126.634C127.842 126.634 129.042 127.834 129.042 129.315V181.159H123.679V129.315Z" fill="#8476AA"/>
<path d="M131 144.5C131 143.119 132.119 142 133.5 142V142C134.88 142 136 143.119 136 144.5V181H131V144.5Z" fill="#99EFD0"/>
<path d="M91.5002 114.12C91.5002 112.639 92.7008 111.438 94.1818 111.438V111.438C95.6628 111.438 96.8634 112.639 96.8634 114.12V181.159H91.5002V114.12Z" fill="#8476AA"/>
<path d="M98.9998 134.5C98.9998 133.119 100.119 132 101.5 132V132C102.88 132 104 133.119 104 134.5V181H98.9998V134.5Z" fill="#99EFD0"/>
<path d="M188.037 76.5775C188.037 75.0965 189.238 73.8959 190.719 73.8959V73.8959C192.2 73.8959 193.401 75.0965 193.401 76.5775V181.159H188.037V76.5775Z" fill="#8476AA"/>
<path d="M195 107.5C195 106.119 196.119 105 197.5 105V105C198.88 105 200 106.119 200 107.5V181H195V107.5Z" fill="#99EFD0"/>
<path d="M59.3213 149.874C59.3213 148.393 60.5219 147.193 62.0029 147.193V147.193C63.4839 147.193 64.6845 148.393 64.6845 149.874V181.159H59.3213V149.874Z" fill="#8476AA"/>
<path d="M65.9998 160C65.9998 158.343 67.3429 157 68.9998 157V157C70.6566 157 71.9998 158.343 71.9998 160V181H65.9998V160Z" fill="#99EFD0"/>
<path d="M155.858 88.1977C155.858 86.7167 157.059 85.5161 158.54 85.5161V85.5161C160.021 85.5161 161.221 86.7167 161.221 88.1977V181.159H155.858V88.1977Z" fill="#8476AA"/>
<path d="M163 115.5C163 114.119 164.119 113 165.5 113V113C166.88 113 168 114.119 168 115.5V181H163V115.5Z" fill="#99EFD0"/>
</g>
<defs>
<filter id="filter0_d_2_554" x="-60.4559" y="-38.7305" width="339.667" height="332.516" filterUnits="userSpaceOnUse" color-interpolation-filters="sRGB">
<feFlood flood-opacity="0" result="BackgroundImageFix"/>
<feColorMatrix in="SourceAlpha" type="matrix" values="0 0 0 0 0 0 0 0 0 0 0 0 0 0 0 0 0 0 127 0" result="hardAlpha"/>
<feOffset dx="-7.15089" dy="14.3018"/>
<feGaussianBlur stdDeviation="26.8158"/>
<feColorMatrix type="matrix" values="0 0 0 0 0.322856 0 0 0 0 0.446289 0 0 0 0 0.545035 0 0 0 0.24 0"/>
<feBlend mode="normal" in2="BackgroundImageFix" result="effect1_dropShadow_2_554"/>
<feBlend mode="normal" in="SourceGraphic" in2="effect1_dropShadow_2_554" result="shape"/>
</filter>
<clipPath id="clip0_2_554">
<rect width="232.404" height="225.253" fill="white" transform="translate(0.32666 0.599365)"/>
</clipPath>
<clipPath id="clip1_2_554">
<rect width="146.593" height="12.5141" fill="white" transform="translate(53.0645 184.735)"/>
</clipPath>
<clipPath id="clip2_2_554">
<rect width="16.0895" height="124.247" fill="white" transform="translate(26.2485 60.488)"/>
</clipPath>
</defs>
</svg>
